<svg xmlns="http://www.w3.org/2000/svg" width="512" height="512" viewBox="0 0 512 512" version="1.1">
	<path d="M 227.265 62.542 C 219.950 64.512, 213.402 68.054, 207.168 73.415 C 204.236 75.937, 201.670 78, 201.467 78 C 201.264 78, 198.488 77.307, 195.299 76.459 C 185.329 73.811, 170.938 76.952, 164.248 83.237 C 162.087 85.267, 161.654 85.305, 154.245 84.110 C 141.800 82.103, 133.699 84.816, 123.869 94.280 C 114.647 103.158, 111.482 112.017, 110.358 132.093 C 109.742 143.110, 109.836 143.963, 112.260 149.257 C 115.113 155.489, 117.894 157.662, 120.934 156.035 C 121.998 155.466, 123.146 155, 123.485 155 C 124.039 155, 127 161.243, 127 162.410 C 127 162.671, 125.088 163.023, 122.750 163.193 L 118.500 163.500 118.500 170.088 C 118.500 176.070, 118.857 177.213, 122.383 182.523 C 134.467 200.718, 143.207 204.343, 165.500 200.403 C 175.827 198.578, 182.149 199.015, 187.904 201.951 C 201.955 209.119, 207.756 221.552, 208.689 246.500 C 209.173 259.424, 208.976 261.641, 206.122 275.349 C 204.421 283.517, 202.736 293.725, 202.377 298.035 L 201.723 305.871 197.660 306.557 C 183.936 308.876, 173.823 319.294, 169.486 335.581 C 167.400 343.418, 167.360 361.428, 169.409 370.264 C 170.269 373.971, 173.003 382.434, 175.486 389.071 C 177.969 395.708, 180 402, 180 403.054 C 180 405.678, 170.216 410.517, 161.931 411.990 C 155.086 413.208, 146.871 416.532, 141.824 420.126 C 137.403 423.273, 134.721 430.034, 134.646 438.217 C 134.577 445.753, 136.241 449.128, 137.888 444.794 C 139.150 441.476, 143.368 438.230, 147.881 437.104 C 157.847 434.617, 157 434.314, 157 440.366 C 157 446.630, 159.730 456, 161.554 456 C 162.242 456, 163.245 454.735, 163.784 453.190 C 165.264 448.945, 167.555 447.177, 173.811 445.451 C 176.940 444.588, 186.330 441.811, 194.677 439.280 L 209.854 434.679 216.177 436.949 C 229.310 441.665, 232 444.045, 232 450.950 C 232 454.788, 233.276 454.825, 235.953 451.066 C 239.148 446.579, 241 440.342, 241 434.070 C 241 427.224, 237.756 421.404, 230.614 415.433 C 226.726 412.183, 226 411.020, 225.999 408.038 C 225.998 406.092, 224.873 399.859, 223.499 394.186 C 222.124 388.514, 221 383.627, 221 383.327 C 221 383.028, 222.687 384.818, 224.750 387.306 C 237.983 403.267, 257.526 413.157, 284.470 417.527 C 289.437 418.333, 293.816 418.994, 294.202 418.996 C 294.589 418.998, 292.766 421.139, 290.151 423.753 C 284.622 429.283, 282.405 435.362, 282.674 444.255 C 282.850 450.054, 284.582 457.033, 285.828 456.961 C 286.197 456.940, 287.400 455.496, 288.500 453.751 C 291.630 448.787, 299.396 444.486, 305.076 444.571 C 310.814 444.657, 314.331 446.789, 316.856 451.711 C 317.897 453.739, 321.167 457.224, 324.124 459.455 C 327.891 462.298, 330.293 465.137, 332.150 468.945 L 334.800 474.378 336.876 470.964 C 339.010 467.454, 340.730 460.543, 341.221 453.500 C 341.494 449.588, 341.577 449.506, 345 449.777 C 346.925 449.930, 351.765 450.749, 355.756 451.597 C 364.160 453.383, 368.039 456.141, 370.382 461.996 C 371.263 464.198, 372.378 466, 372.860 466 C 374.042 466, 377.001 455.217, 376.994 450.934 C 376.987 446.115, 375.364 440.815, 372.687 436.868 L 370.402 433.500 388.951 433.434 C 405.722 433.374, 408.437 433.115, 417.277 430.734 C 446.863 422.767, 471.352 403.362, 485.584 376.609 C 499.613 350.238, 500.745 322.523, 488.477 305.774 C 480.814 295.312, 468.197 293.916, 463.494 303.011 C 460.235 309.314, 462.294 315.183, 468.611 317.596 C 473.916 319.622, 475.539 323.413, 474.470 331.285 C 471.635 352.152, 457.569 374.610, 442.545 382.254 C 437.696 384.721, 435.287 385.322, 430.366 385.291 C 420.314 385.228, 415.556 382.359, 398.196 365.888 L 383.032 351.500 383.016 346.750 C 382.997 341.163, 383.010 341.159, 394.792 343.591 C 408.724 346.466, 417.619 352.375, 423.741 362.821 C 426 366.675, 426.451 367.014, 427.074 365.328 C 427.471 364.256, 427.363 360.997, 426.834 358.086 C 426.305 355.176, 426.026 352.640, 426.215 352.452 C 426.403 352.264, 429.670 353.197, 433.474 354.526 C 437.278 355.856, 440.588 356.745, 440.830 356.504 C 441.562 355.771, 438.849 349.804, 435.323 344.393 C 428.438 333.827, 418.214 326.215, 406.068 322.612 C 397.728 320.137, 381.808 320.573, 374.811 323.468 C 373.456 324.029, 372.896 323.310, 371.980 319.834 C 371.353 317.450, 369.975 314.012, 368.919 312.193 C 365.152 305.702, 366.177 305, 379.422 305 C 395.899 305, 411.336 310.586, 423.500 320.950 C 426.800 323.762, 429.650 326.498, 429.833 327.031 C 430.017 327.564, 431.065 328, 432.163 328 C 433.885 328, 434.067 327.555, 433.490 324.750 C 431.408 314.642, 416.536 293.315, 406.587 286.170 C 397.782 279.847, 391.547 277.755, 380 277.249 C 372.326 276.913, 367.846 277.221, 363.356 278.394 C 354.410 280.732, 354.348 280.710, 352.537 274.481 C 351.300 270.225, 349.796 267.888, 345.966 264.274 C 343.235 261.696, 341 259.061, 341 258.418 C 341 256.759, 345.840 256, 356.415 256 C 373.340 256, 384.598 260.536, 395.750 271.850 L 403 279.205 402.973 275.352 C 402.939 270.504, 398.599 260.236, 393.299 252.468 C 380.494 233.697, 362.377 222.970, 345.702 224.288 C 333.789 225.229, 326.478 228.153, 319.020 234.959 C 312.523 240.888, 311.051 241.167, 311.015 236.481 C 311.007 235.371, 312.361 231.224, 314.024 227.265 C 317.275 219.527, 319.534 205.956, 318.584 199.877 C 318.245 197.712, 318.819 193.119, 320.008 188.467 C 325.595 166.624, 317.873 139.089, 301.035 120.816 C 294.931 114.192, 293.719 112.218, 291.544 105.361 C 290.173 101.037, 287.352 94.586, 285.276 91.024 C 280.568 82.951, 268.151 70.314, 261.425 66.753 C 250.982 61.223, 238.070 59.631, 227.265 62.542 M 229.081 71.588 C 218.690 74.382, 212.655 79.865, 208.058 90.690 C 206.379 94.644, 204.506 100.269, 203.896 103.190 C 202.466 110.032, 201.028 111.601, 200.907 106.450 C 200.718 98.381, 201.219 93.413, 202.540 90.250 C 203.762 87.325, 203.728 87.001, 202.199 87.013 C 201.265 87.020, 197.350 86.289, 193.500 85.389 C 187.646 84.021, 185.565 83.948, 180.785 84.940 C 174.433 86.260, 170 90.220, 170 94.577 C 170 97.593, 169.319 97.589, 159 94.500 C 154.406 93.125, 149.039 92.010, 147.074 92.022 C 139.876 92.066, 128.363 99.408, 124.926 106.146 C 123.755 108.441, 122.169 114.185, 121.402 118.909 C 119.248 132.182, 119.092 131.677, 125.750 133.003 C 128.912 133.633, 138.250 135.889, 146.500 138.017 C 171.957 144.583, 190.924 145.855, 205.068 141.945 C 219.985 137.822, 230.508 136.519, 238.874 137.760 C 247.267 139.005, 256.309 142.363, 263.977 147.081 C 270.284 150.962, 296.492 178.755, 301.509 186.883 C 303.585 190.247, 305.865 193, 306.574 193 C 308.297 193, 311.412 188.432, 313.053 183.500 C 313.812 181.220, 314.337 175.630, 314.274 170.500 C 314.013 149.193, 301.412 127.264, 284.560 118.789 C 278.369 115.676, 277.042 114.512, 277.015 112.171 C 277.004 111.212, 277.838 111.025, 280 111.500 C 283.499 112.269, 283.597 111.833, 281.610 104.368 C 277.277 88.095, 263.918 74.528, 248.791 71.039 C 242.830 69.664, 235.477 69.869, 229.081 71.588 M 235.500 78.661 C 226.649 80.557, 217.349 86.082, 214.066 91.393 C 212.903 93.274, 211.037 99.018, 209.919 104.157 C 208.801 109.296, 207.248 114.479, 206.468 115.676 C 205.142 117.712, 205.236 117.893, 207.918 118.482 C 209.494 118.828, 212.803 120.392, 215.271 121.957 C 221.645 125.999, 237.252 132.051, 244.506 133.294 C 249.834 134.207, 252.013 134.038, 260.585 132.052 C 266.038 130.788, 271.127 129.573, 271.893 129.353 C 274.565 128.586, 272.043 127.745, 267.289 127.819 L 262.500 127.894 266.292 124.816 C 272.020 120.167, 273.331 116.914, 272.521 109.355 C 271.910 103.644, 272.012 103.067, 273.533 103.651 C 274.993 104.211, 275.128 103.835, 274.514 100.900 C 273.292 95.050, 269.173 89.170, 263.706 85.472 C 255.249 79.750, 243.572 76.931, 235.500 78.661 M 229.385 84.560 C 224.451 86.379, 217.512 92.110, 215.474 96.051 C 213.225 100.400, 213.653 100.332, 217.962 95.657 C 223.636 89.502, 230.844 85.862, 238.594 85.240 C 248.870 84.416, 257.053 87.242, 264.641 94.237 C 267.456 96.832, 268.811 97.616, 268.382 96.402 C 267.162 92.946, 261.815 88.167, 256.618 85.888 C 250.017 82.993, 235.553 82.288, 229.385 84.560 M 250.634 94.784 C 250.312 95.304, 249.761 98.181, 249.409 101.178 C 248.583 108.205, 250.414 110.509, 256.104 109.599 C 259.311 109.087, 259.961 109.302, 260.519 111.061 C 261.475 114.071, 256.593 123.407, 252.713 125.990 C 249.903 127.860, 249.814 128.043, 252 127.445 C 260.329 125.165, 263.235 122.676, 264.909 116.385 C 267.407 107.001, 262.076 96.563, 253.713 94.464 C 252.341 94.120, 250.955 94.263, 250.634 94.784 M 233.949 100.051 C 232.512 101.488, 232.103 102.760, 232.584 104.301 C 233.970 108.746, 239.466 109.534, 240.997 105.509 C 242.127 102.535, 241.426 100.298, 238.948 98.972 C 236.492 97.658, 236.301 97.699, 233.949 100.051 M 176.512 100.019 C 176.858 100.579, 179.472 102.202, 182.321 103.625 C 185.169 105.047, 189.582 107.944, 192.127 110.062 C 196.267 113.507, 198 114.070, 198 111.970 C 198 110.234, 192.125 105.701, 185.731 102.502 C 178.753 99.011, 175.317 98.085, 176.512 100.019 M 151.039 103.189 C 148.569 105.840, 148.357 111.221, 150.647 113.122 C 154.081 115.972, 166.081 113.532, 166.792 109.839 C 166.967 108.934, 165.688 106.575, 163.951 104.597 C 161.350 101.635, 160.112 101, 156.935 101 C 154.255 101, 152.456 101.668, 151.039 103.189 M 212.177 116.631 C 212.355 117.527, 213.616 118.990, 214.979 119.881 L 217.459 121.500 215.161 118.250 C 212.625 114.662, 211.685 114.152, 212.177 116.631 M 120.667 138.667 C 119.675 139.658, 119.860 144, 120.893 144 C 121.384 144, 122.045 143.325, 122.362 142.500 C 123.549 139.407, 125.860 141.063, 127.579 146.238 L 129.319 151.475 131.113 147.251 C 133.361 141.957, 135.380 142.424, 138.207 148.894 C 140.308 153.701, 140.526 153.641, 142.385 147.750 C 143.028 145.712, 145.439 145.452, 147.020 147.250 C 147.624 147.938, 149.074 150.075, 150.242 152 L 152.365 155.500 153.432 151.881 C 154.412 148.559, 154.706 148.338, 157 149.188 C 158.375 149.698, 160.692 151.254, 162.148 152.647 C 164.712 155.098, 164.880 155.125, 167.394 153.478 C 169.353 152.194, 170.913 151.965, 173.746 152.546 C 179.420 153.709, 196.846 153.878, 202.500 152.825 C 205.250 152.312, 214.002 151.493, 221.949 151.004 C 238.556 149.982, 247.451 151.088, 260.886 155.842 C 265.349 157.421, 269 158.600, 269 158.461 C 269 158.322, 266.747 156.763, 263.994 154.996 C 251.306 146.854, 233.913 144.478, 208.983 147.481 C 186.339 150.208, 169.383 148.739, 144.667 141.908 C 131.605 138.298, 122.293 137.040, 120.667 138.667 M 218.527 153.553 C 209.914 155.178, 201.546 158.583, 196.265 162.611 L 192.946 165.143 191.903 162.152 C 190.336 157.656, 188.404 157.563, 183.401 161.745 C 178.631 165.732, 179.012 167.552, 183.890 164.078 C 187.741 161.337, 189.795 161.455, 191.182 164.500 C 192.529 167.457, 192.518 167.456, 198.124 165.381 C 201.298 164.206, 206.208 163.737, 216 163.672 C 228.683 163.588, 230.087 163.779, 239.205 166.824 C 273.515 178.282, 293.669 191.451, 302.616 208.258 C 307.070 216.627, 308.194 215.297, 305.555 204.780 C 301.622 189.105, 291.775 175.987, 276.135 165.590 C 259.488 154.523, 237.611 149.952, 218.527 153.553 M 296.966 158.541 C 296.008 159.696, 295.910 160.634, 296.629 161.774 C 298.062 164.045, 299.288 164.244, 301.540 162.572 C 303.110 161.407, 303.280 160.757, 302.393 159.309 C 300.906 156.880, 298.613 156.556, 296.966 158.541 M 169.042 162.605 C 165.511 166.627, 165.718 168.553, 169.318 165.171 C 172.069 162.586, 173.730 162.446, 176.108 164.597 C 177.778 166.109, 177.813 166.002, 176.768 162.597 C 175.343 157.953, 173.124 157.956, 169.042 162.605 M 133.609 161.824 C 133.256 162.395, 133.455 163.163, 134.050 163.531 C 135.536 164.449, 136.062 163.719, 135.071 162.114 C 134.539 161.255, 134.024 161.152, 133.609 161.824 M 155.452 163.646 C 154.104 165.101, 153 166.676, 153 167.146 C 153 168.495, 154.637 168.143, 156 166.500 C 157.602 164.570, 160.407 164.581, 162.020 166.524 C 164.270 169.235, 164.287 167.212, 162.041 164.058 C 159.381 160.321, 158.580 160.271, 155.452 163.646 M 144.015 165.250 C 144.024 165.938, 144.467 167.175, 145 168 C 145.755 169.169, 145.973 168.893, 145.985 166.750 C 145.993 165.238, 145.550 164, 145 164 C 144.450 164, 144.007 164.563, 144.015 165.250 M 165 170.638 C 163.075 170.881, 156.566 171.962, 150.535 173.040 C 144.505 174.118, 136.951 175, 133.748 175 L 127.925 175 132.071 181.105 C 135.368 185.960, 137.300 187.706, 141.506 189.631 L 146.795 192.053 159.831 190.026 C 176.180 187.485, 189.721 187.453, 201.710 189.927 C 212.718 192.198, 222.427 196.265, 239.731 205.851 C 258.912 216.477, 264.796 218.334, 279.500 218.405 C 286.864 218.440, 292.573 217.992, 294.278 217.246 L 297.055 216.029 295.007 212.014 L 292.959 208 283.531 208 C 269.644 208, 262.080 205.280, 241.399 192.850 C 222.791 181.665, 215.936 178.307, 202.500 173.793 C 194.727 171.182, 191.796 170.730, 181 170.483 C 174.125 170.325, 166.925 170.395, 165 170.638 M 306.100 196.691 C 306.155 197.686, 306.560 199.625, 307 201 C 307.719 203.246, 307.811 203.124, 307.900 199.809 C 307.955 197.779, 307.550 195.840, 307 195.500 C 306.450 195.160, 306.045 195.696, 306.100 196.691 M 219.392 217.422 C 217.959 221.155, 223.051 225.488, 230.071 226.509 C 234.637 227.173, 243 225.638, 243 224.136 C 243 222.699, 238.525 219.117, 234.768 217.548 C 229.968 215.542, 220.144 215.462, 219.392 217.422 M 220.022 228.750 C 220.034 229.713, 220.908 232.403, 221.964 234.729 C 225.476 242.466, 233.125 244.823, 243.668 241.418 C 246.361 240.548, 249.639 239.026, 250.953 238.036 C 253.140 236.386, 253.234 235.979, 252.079 233.190 C 251.385 231.515, 250 229.405, 249.001 228.501 C 247.334 226.993, 246.806 226.987, 242.558 228.429 C 236.862 230.363, 229.797 230.379, 224.500 228.471 C 222.300 227.679, 220.387 227.023, 220.250 227.015 C 220.113 227.007, 220.010 227.787, 220.022 228.750 M 261 231.412 C 261 231.604, 262.615 236.203, 264.589 241.631 C 272.787 264.171, 276.329 280.084, 278.023 301.989 C 278.640 309.958, 279.307 316.641, 279.506 316.840 C 279.706 317.039, 280.350 315.244, 280.938 312.851 C 282.193 307.749, 286.688 294.425, 290.503 284.500 C 294.318 274.573, 293.722 268.463, 286.997 248.586 C 282.641 235.710, 281.343 232.892, 279.606 232.547 C 276.587 231.946, 261 230.995, 261 231.412 M 288.553 235.914 C 289.943 239.351, 291.977 247.038, 294.530 258.500 C 297.790 273.139, 297.469 278.284, 292.502 290.996 C 287.788 303.058, 286.156 310.423, 285.408 323 C 283.882 348.668, 295.525 367.403, 309.401 361.606 C 312.297 360.396, 313.626 358.711, 317.045 351.910 C 319.445 347.138, 321.481 344.160, 321.891 344.823 C 322.280 345.453, 322.044 349.687, 321.366 354.234 C 319.878 364.221, 318.446 397.655, 319.351 401.263 C 321.185 408.570, 335.824 406.084, 342.758 397.288 C 353.708 383.398, 360.505 358.065, 358.040 340.329 C 356.942 332.424, 352.987 322.359, 348.947 317.187 C 345.861 313.237, 340.004 310.011, 335.907 310.005 C 328.704 309.995, 317.163 315.107, 308.032 322.353 C 305.575 324.303, 303.406 325.739, 303.213 325.546 C 302.481 324.814, 307.370 316.316, 311.108 311.821 C 314.152 308.161, 314.996 306.308, 314.980 303.321 C 314.937 294.909, 311.876 277.631, 307.623 261.797 C 305.155 252.610, 302.824 243.011, 302.443 240.467 C 301.664 235.276, 301.699 235.298, 293.706 234.736 C 288.720 234.385, 288.001 234.549, 288.553 235.914 M 336.655 235.829 C 334.602 238.097, 334.567 239.396, 336.515 241.012 C 337.712 242.006, 339.548 242.026, 345.265 241.108 C 356.131 239.363, 367.059 242.051, 379.460 249.518 C 386.406 253.701, 387.731 253.576, 381.748 249.302 C 370.672 241.391, 360.737 238.550, 346.750 239.293 C 336.742 239.825, 336.088 239.573, 338.035 235.934 C 339.336 233.503, 338.797 233.462, 336.655 235.829 M 248.658 243 C 240.883 246.776, 234.661 247.578, 228.955 245.539 C 226.505 244.664, 224.089 243.847, 223.587 243.724 C 222.193 243.382, 222.958 254.213, 224.497 256.601 C 228.032 262.086, 238.158 263.430, 249.519 259.922 C 258.263 257.221, 261.124 254.483, 260.073 249.823 C 259.086 245.449, 256.789 240.718, 255.500 240.405 C 254.950 240.271, 251.871 241.439, 248.658 243 M 323.398 240.765 C 322.792 241.169, 320.161 244.134, 317.552 247.354 L 312.808 253.208 314.515 257.678 C 315.454 260.136, 316.820 262.377, 317.550 262.658 C 318.280 262.938, 321.446 262.634, 324.586 261.982 C 331.712 260.503, 335 257.508, 335 252.496 C 335 244.720, 328.033 237.676, 323.398 240.765 M 255.235 262.182 C 250.523 264.445, 247.022 265.325, 241.117 265.729 C 234.144 266.207, 232.636 265.980, 227.652 263.698 C 224.564 262.285, 221.795 261.523, 221.497 262.005 C 220.557 263.526, 220.781 274.391, 221.806 277 C 224.105 282.854, 231.779 287.013, 240.218 286.979 C 246.515 286.954, 257.716 283.217, 262.553 279.527 C 265.650 277.165, 265.992 276.421, 265.923 272.199 C 265.835 266.803, 263.948 259.775, 262.490 259.416 C 261.946 259.282, 258.681 260.527, 255.235 262.182 M 334.667 264.667 C 334.300 265.033, 334 266.856, 334 268.716 C 334 272.632, 331.827 277.371, 328.304 281.141 C 325.899 283.713, 325.878 283.864, 327.505 287.010 C 329.034 289.966, 329.495 290.197, 332.946 289.734 C 338.094 289.044, 343.837 286.179, 345.665 283.389 C 347.740 280.222, 347.704 273.003, 345.596 269.787 C 344.653 268.347, 342.099 266.456, 339.920 265.585 C 335.360 263.760, 335.541 263.792, 334.667 264.667 M 321.651 266.734 C 317.807 267.132, 317.803 267.137, 318.481 270.816 C 319.416 275.892, 321.259 279.500, 322.915 279.500 C 324.412 279.500, 327.516 274.175, 328.965 269.122 C 329.953 265.678, 330.412 265.828, 321.651 266.734 M 262 284.603 C 248.454 292.746, 232.691 292.908, 222.857 285.005 L 218.990 281.897 218.073 284.309 C 217.568 285.636, 216.615 289.468, 215.955 292.825 C 214.831 298.538, 214.906 299.236, 217.127 303.715 C 220.333 310.179, 225.763 313.157, 235.484 313.781 C 244.050 314.330, 251.676 312.415, 260.500 307.498 C 269.467 302.500, 271 300.735, 271 295.404 C 271 290.723, 269.226 282.217, 268.127 281.632 C 267.782 281.448, 265.025 282.785, 262 284.603 M 322.592 292.137 C 324.341 301.315, 324.900 303, 326.197 303 C 327.669 303, 326.707 295.419, 324.504 289.649 C 321.904 282.843, 321.036 283.972, 322.592 292.137 M 350 290.874 C 350 293.005, 349.325 296.662, 348.500 299 C 347.675 301.338, 347 303.419, 347 303.624 C 347 304.490, 356.490 309.815, 357.225 309.361 C 358.636 308.489, 361 301.863, 361 298.779 C 361 294.547, 358.331 289.472, 355.405 288.139 C 351.016 286.139, 350 286.654, 350 290.874 M 341.632 291.717 C 340.055 292.545, 337.018 293.456, 334.882 293.743 C 332.006 294.128, 331 294.729, 331 296.060 C 331 299.238, 333.904 301.129, 338.283 300.801 C 342.185 300.510, 342.380 300.324, 344.099 295.250 C 346.020 289.581, 345.935 289.459, 341.632 291.717 M 369 291.994 C 367.404 292.501, 370.207 292.800, 376.748 292.822 C 389.457 292.864, 396.165 294.322, 405.904 299.161 C 410.861 301.623, 412.631 302.200, 411 300.822 C 407.589 297.939, 399.717 294.410, 392.540 292.547 C 386.319 290.932, 373.303 290.626, 369 291.994 M 469.939 304.061 C 468.640 305.360, 467.993 307.110, 468.189 308.799 C 468.450 311.050, 469.110 311.575, 472.327 312.093 C 478.760 313.130, 480.448 315.747, 480.829 325.277 C 481.268 336.228, 479.099 345.964, 473.698 357.287 C 464.966 375.594, 454.467 386.127, 440.137 390.954 C 432.974 393.367, 426.572 393.532, 419 391.500 C 415.975 390.688, 413.163 390.018, 412.750 390.012 C 412.337 390.005, 412 392.387, 412 395.304 C 412 403.145, 406.604 410.642, 394.447 419.694 L 391.500 421.889 402 421.930 C 413.043 421.973, 421.705 420.446, 431 416.819 C 458.395 406.128, 481.474 378.690, 488.588 348.353 C 489.754 343.380, 490.077 338.346, 489.765 330 C 489.266 316.653, 487.346 311.352, 480.901 305.529 C 476.435 301.495, 472.969 301.031, 469.939 304.061 M 266.500 308.993 C 251.383 319.994, 227.747 320.983, 217.795 311.030 L 214 307.235 214 316.302 C 214 327.695, 216.143 335.639, 220.631 340.883 C 225.530 346.606, 231.218 348.500, 243.500 348.500 C 251.968 348.500, 254.663 348.072, 261.089 345.707 C 265.263 344.171, 270.148 341.687, 271.946 340.186 L 275.214 337.458 274.004 322.479 C 273.338 314.241, 272.589 307.163, 272.338 306.750 C 271.616 305.563, 270.763 305.891, 266.500 308.993 M 359 315.127 C 359 315.712, 359.897 317.451, 360.993 318.991 C 362.090 320.531, 363.411 322.850, 363.930 324.145 C 364.855 326.455, 364.874 326.446, 364.937 323.654 C 364.971 322.089, 364.236 319.516, 363.303 317.936 C 361.534 314.941, 359 313.287, 359 315.127 M 191.495 317.568 C 186.287 321.102, 184.389 323.461, 180.690 331 C 177.582 337.333, 177.500 337.847, 177.500 351 C 177.500 362.514, 177.840 365.485, 179.814 371.196 C 182.023 377.592, 185.275 383, 186.910 383 C 187.331 383, 187.636 375.462, 187.588 366.250 C 187.496 348.735, 188.980 339.921, 192.514 336.988 C 194.981 334.941, 195.404 336.631, 193.446 340.714 C 191.950 343.834, 191.531 348.047, 191.065 364.670 C 190.754 375.763, 190.133 385.205, 189.685 385.651 C 189.237 386.097, 187.498 385.675, 185.821 384.712 C 182.910 383.041, 182.801 383.042, 183.434 384.731 C 185.019 388.961, 190.793 397.455, 194.161 400.511 C 197.019 403.106, 199.047 403.987, 203.411 404.532 C 209.343 405.273, 210.632 406.552, 206.493 407.591 C 202.811 408.515, 197.696 407.283, 193.556 404.474 C 191.551 403.113, 189.757 402, 189.569 402 C 188.491 402, 188.545 408.352, 189.636 409.788 C 191.544 412.300, 191.278 413.219, 188.996 411.998 C 186.779 410.811, 180.735 412.006, 177.709 414.230 C 176.191 415.345, 176.414 415.509, 179.539 415.577 C 184.208 415.678, 186.751 418.346, 187.866 424.310 C 188.357 426.940, 189.046 429.379, 189.396 429.729 C 190.567 430.900, 208.285 424.555, 211.916 421.664 C 213.887 420.095, 216.251 418.407, 217.169 417.913 C 218.703 417.089, 218.718 417.258, 217.350 420.001 C 215.748 423.212, 216.232 426.356, 218.773 429.250 C 220.925 431.700, 221.514 431.488, 223.928 427.398 C 225.877 424.094, 226.376 423.826, 229.947 424.166 L 233.840 424.538 232.170 421.650 C 229.862 417.661, 226.561 415.691, 223.048 416.206 C 220.336 416.604, 219.923 416.248, 218.045 411.884 C 215.678 406.380, 213.871 398.165, 211.475 382 C 210.538 375.675, 208.026 363.642, 205.893 355.259 C 203.761 346.877, 201.768 336.752, 201.466 332.759 C 200.157 315.474, 200.053 315, 197.568 315 C 196.309 315, 193.576 316.156, 191.495 317.568 M 389.250 330.689 C 390.212 330.941, 391.788 330.941, 392.750 330.689 C 393.712 330.438, 392.925 330.232, 391 330.232 C 389.075 330.232, 388.288 330.438, 389.250 330.689 M 367 332.304 C 367 333.968, 372.132 342.067, 374.329 343.872 C 376.943 346.020, 376.433 343.592, 372.861 336.890 C 369.976 331.479, 367 329.150, 367 332.304 M 380.762 331.707 C 382.006 331.946, 383.806 331.937, 384.762 331.687 C 385.718 331.437, 384.700 331.241, 382.500 331.252 C 380.300 331.263, 379.518 331.468, 380.762 331.707 M 397.250 331.689 C 398.212 331.941, 399.788 331.941, 400.750 331.689 C 401.712 331.438, 400.925 331.232, 399 331.232 C 397.075 331.232, 396.288 331.438, 397.250 331.689 M 405.500 333 C 406.600 333.473, 408.175 333.859, 409 333.859 C 409.945 333.859, 409.761 333.542, 408.500 333 C 407.400 332.527, 405.825 332.141, 405 332.141 C 404.055 332.141, 404.239 332.458, 405.500 333 M 412 335 C 412.825 335.533, 413.950 335.969, 414.500 335.969 C 415.050 335.969, 414.825 335.533, 414 335 C 413.175 334.467, 412.050 334.031, 411.500 334.031 C 410.950 334.031, 411.175 334.467, 412 335 M 329.509 336.750 C 331.676 341.999, 332.213 348.654, 332.133 369.295 C 332.085 381.858, 332.433 391.850, 332.909 391.556 C 334.636 390.489, 336.216 370.933, 335.758 356.274 C 335.256 340.217, 334.040 335, 330.795 335 C 329.273 335, 328.961 335.424, 329.509 336.750 M 416.083 336.339 C 417.662 337.626, 427.884 342.622, 427.429 341.884 C 426.833 340.920, 417.583 336, 416.367 336 C 415.982 336, 415.854 336.153, 416.083 336.339 M 271.768 345.594 C 263.959 350.926, 255.060 353.401, 243.500 353.454 C 234.259 353.497, 232.983 353.255, 226.690 350.275 C 220.102 347.154, 219.902 347.122, 220.537 349.275 C 221.671 353.123, 228.628 364.306, 232.911 369.166 C 235.172 371.733, 238.960 374.770, 241.327 375.916 C 247.031 378.677, 257.475 378.715, 266.247 376.005 C 272.819 373.975, 283.525 367.680, 284.434 365.311 C 284.710 364.592, 284.048 362.501, 282.963 360.662 C 281.878 358.823, 280.174 354.104, 279.176 350.174 C 278.178 346.244, 277.168 342.878, 276.931 342.695 C 276.694 342.512, 274.371 343.816, 271.768 345.594 M 366.523 355.500 C 365.906 362.594, 365.024 367.560, 363.373 373.250 C 362.523 376.180, 364.528 375.227, 369.064 370.547 C 377.376 361.970, 377.771 359.148, 371.610 352.347 L 367.220 347.500 366.523 355.500 M 375.998 368.709 C 374.074 371.300, 369.913 375.381, 366.750 377.780 C 363.587 380.179, 361 382.619, 361 383.202 C 361 383.785, 359.140 388.503, 356.867 393.687 L 352.733 403.112 355.617 406.124 C 359.342 410.015, 370.924 415.699, 378.205 417.210 C 383.109 418.228, 384.699 418.145, 389.537 416.620 C 395.922 414.607, 401.931 409.706, 406.168 403.054 C 408.388 399.569, 409 397.430, 409 393.151 C 409 388.017, 408.747 387.458, 404.750 383.735 C 396.913 376.438, 381.683 364, 380.584 364 C 379.986 364, 377.922 366.119, 375.998 368.709 M 286.024 370.471 C 281.154 376.338, 267.468 381.755, 254.811 382.824 L 246.500 383.526 251.255 386.361 C 262.696 393.182, 275.855 395.072, 284.500 391.134 C 288.701 389.221, 296 381.939, 296 379.661 C 296 378.147, 289.126 369, 287.989 369 C 287.580 369, 286.696 369.662, 286.024 370.471 M 336.526 406.516 C 331.097 409.834, 325.005 410.648, 320.908 408.604 C 319.140 407.722, 317.350 407, 316.930 407 C 316.511 407, 314.186 410.297, 311.764 414.328 C 307.708 421.075, 307.474 421.828, 308.802 423.828 C 309.595 425.022, 311.275 426, 312.534 426 C 314.435 426, 314.942 426.695, 315.516 430.094 L 316.208 434.188 318.056 431.148 C 321.101 426.140, 324.253 424.599, 328.548 426.016 C 330.541 426.674, 333.670 428.527, 335.500 430.135 L 338.829 433.057 344.551 429.049 C 348.719 426.129, 349.849 424.879, 348.714 424.444 C 346.786 423.704, 344.415 417.950, 343.486 411.758 C 342.387 404.427, 341.293 403.604, 336.526 406.516 M 153.020 417.588 C 150.257 418.786, 149.845 419.290, 151.020 420.033 C 153.285 421.466, 163.363 421.186, 165.489 419.632 C 167.301 418.307, 167.294 418.227, 165.246 417.132 C 162.353 415.583, 157.198 415.775, 153.020 417.588 M 173.687 420.805 C 172.209 422.347, 171 423.922, 171 424.305 C 171 424.687, 172.739 425, 174.865 425 C 177.222 425, 179.727 425.784, 181.284 427.009 L 183.837 429.017 184.507 425.968 C 186.088 418.772, 178.914 415.349, 173.687 420.805 M 297.112 422.265 C 295.798 422.944, 293.603 424.962, 292.233 426.750 L 289.744 430 291.938 430 C 293.144 430, 295.002 430.466, 296.066 431.035 C 297.752 431.938, 298 431.730, 298 429.419 C 298 427.129, 298.307 426.862, 300.250 427.464 C 306.745 429.477, 307 429.425, 307 426.092 C 307 423.640, 306.437 422.736, 304.435 421.975 C 301.127 420.718, 300.018 420.762, 297.112 422.265 M 142.115 426.580 C 139.224 430.257, 139.444 431.871, 142.452 429.045 C 144.058 427.536, 145.631 426.932, 147.010 427.292 C 148.598 427.708, 149.038 427.432, 148.798 426.172 C 148.265 423.373, 144.455 423.606, 142.115 426.580 M 320.923 430.923 C 318.460 433.386, 318 434.645, 318 438.923 C 318 441.715, 318.214 444, 318.476 444 C 318.738 444, 320.425 443.102, 322.226 442.004 C 326.154 439.608, 328.150 439.509, 332.028 441.514 L 334.956 443.028 334.342 439.764 C 333.222 433.802, 331.160 430.011, 328.483 428.994 C 324.697 427.554, 324.153 427.693, 320.923 430.923 M 348.687 430.805 C 345.482 434.150, 345.323 435.567, 347.991 436.995 C 349.500 437.803, 350.751 437.663, 353.159 436.418 C 355.426 435.246, 357.628 434.951, 360.839 435.391 C 363.316 435.731, 365.153 435.820, 364.921 435.590 C 364.456 435.128, 351.938 428, 351.591 428 C 351.472 428, 350.165 429.262, 348.687 430.805 M 229.667 429.667 C 229.300 430.033, 229 431.116, 229 432.073 C 229 433.320, 229.566 433.665, 230.999 433.290 C 232.544 432.886, 233.331 433.533, 234.460 436.134 C 235.885 439.415, 235.923 439.432, 235.961 436.815 C 236.022 432.642, 234.265 429, 232.191 429 C 231.169 429, 230.033 429.300, 229.667 429.667 M 165.073 432.635 C 163.933 434.084, 163.018 436.447, 163.039 437.885 C 163.078 440.477, 163.090 440.473, 164.428 437.400 C 165.874 434.077, 168.081 432.710, 170.500 433.638 C 171.541 434.038, 172 433.569, 172 432.107 C 172 428.994, 167.677 429.323, 165.073 432.635 M 288.787 439 C 288.545 440.650, 288.470 442, 288.622 442 C 289.219 442, 294 437.231, 294 436.635 C 294 436.286, 292.926 436, 291.613 436 C 289.726 436, 289.135 436.628, 288.787 439 M 364.250 440.667 C 363.563 440.942, 363 441.831, 363 442.642 C 363 443.454, 363.441 443.846, 363.979 443.513 C 365.480 442.585, 368.786 444.740, 370.518 447.775 C 372.045 450.450, 372.062 450.454, 371.454 448 C 370.749 445.150, 367.839 440.739, 366.439 440.396 C 365.923 440.270, 364.938 440.392, 364.250 440.667 M 329.278 448.250 C 326.902 451.323, 326.728 452.221, 328.625 451.630 C 331.186 450.832, 332.920 452.118, 333.956 455.585 C 334.787 458.363, 334.832 458.303, 334.914 454.321 C 335.029 448.748, 331.682 445.142, 329.278 448.250" stroke="none" fill="black" fill-rule="evenodd"/>
</svg>