<svg xmlns="http://www.w3.org/2000/svg" width="512" height="512" viewBox="0 0 512 512" version="1.1"> <path d="M 233.490 37.017 C 233.144 37.576, 234.651 42.638, 236.837 48.267 C 243.632 65.754, 248.848 86.412, 250.909 104 C 252.977 121.652, 253.132 123.465, 252.518 122.851 C 252.181 122.514, 250.569 117.146, 248.936 110.921 C 245.728 98.693, 241.113 87.176, 235.831 78.211 C 227.444 63.979, 198.814 40.939, 192.518 43.355 C 189.442 44.535, 191.215 47.510, 200.292 56.400 C 211.836 67.704, 218.397 76.491, 225.383 90 C 230.562 100.014, 237 116.456, 237 119.668 C 237 120.550, 234.194 118.598, 230.250 114.974 C 213.442 99.527, 193.606 86.835, 179 82.182 C 168.755 78.918, 166 78.974, 166 82.445 C 166 84.579, 167.770 85.797, 179.927 92.033 C 189.399 96.891, 195.810 100.946, 199.970 104.711 C 203.334 107.756, 205.880 110.454, 205.626 110.707 C 205.373 110.960, 201.191 109.587, 196.333 107.656 C 176.552 99.792, 156.106 98.873, 139.463 105.100 C 129.312 108.898, 128.318 111.998, 137.250 112.004 C 148.555 112.011, 173.015 116.887, 180 120.526 L 182.500 121.828 180 122.326 C 178.625 122.599, 174.350 123.340, 170.500 123.972 C 149.209 127.467, 127.165 138.826, 109 155.662 C 104.875 159.485, 97.338 165.699, 92.250 169.471 C 79.761 178.731, 79.913 179.951, 93 175.500 C 104.059 171.739, 104.994 172.030, 100.230 177.750 C 77.139 205.476, 64 244.921, 64 286.520 C 64 297.369, 65.212 299.744, 66.469 291.358 C 68.235 279.585, 79.875 248.009, 83.584 244.930 C 85.884 243.022, 85.369 246.788, 81.557 259.773 C 76.131 278.254, 74.806 286.781, 74.257 306.759 C 73.586 331.167, 75.651 347.766, 81.751 367 L 84.446 375.500 85.121 358.500 C 85.768 342.192, 87.389 330.520, 90.573 319.250 C 91.388 316.362, 92.381 314.002, 92.778 314.004 C 93.175 314.006, 93.530 322.219, 93.568 332.254 C 93.640 351.666, 94.778 360.076, 99.590 376.748 C 104.763 394.673, 113.890 412.585, 127.865 432.238 C 139.178 448.147, 139.579 447.100, 131.123 423.737 C 125.481 408.150, 121 393.489, 121 390.614 C 121 389.864, 122.263 388.997, 123.806 388.689 C 125.349 388.380, 130.187 385.558, 134.556 382.418 C 138.925 379.278, 143.142 376.661, 143.927 376.604 C 145.630 376.480, 148.900 390.463, 151.971 411 C 154.624 428.743, 154.526 434.404, 151.347 447.074 C 146.999 464.406, 148.904 466.207, 163.765 458.810 L 172.183 454.621 175.919 458.667 C 181.271 464.464, 185.432 465.059, 193.400 461.169 C 196.755 459.531, 200.330 457.920, 201.345 457.590 C 203.501 456.889, 210.885 459.930, 212.872 462.337 C 216.141 466.297, 219.526 462.363, 218.753 455.503 C 218.436 452.689, 216.873 449.305, 214.027 445.269 C 211.614 441.846, 209.410 437.350, 208.931 434.870 C 207.917 429.622, 207.839 411.043, 208.808 405.633 L 209.500 401.766 217 407.587 C 221.125 410.788, 228.906 417.141, 234.292 421.704 C 249.707 434.764, 249.777 433.287, 234.695 413.285 C 222.410 396.992, 215.200 385.701, 210.803 375.867 C 209.041 371.927, 207.424 369.229, 207.209 369.873 C 206.538 371.885, 211 385.045, 215.153 393.304 C 217.338 397.651, 218.899 401.434, 218.621 401.712 C 217.677 402.657, 197.788 382.531, 193.211 376 C 187.754 368.212, 183.944 363.917, 183.007 364.496 C 181.191 365.618, 186.128 388.434, 190.532 399.270 C 191.887 402.607, 192.814 405.519, 192.590 405.743 C 192.367 405.966, 190.695 404.513, 188.875 402.513 C 177.029 389.495, 172.036 373.704, 174.370 356.638 C 175.384 349.224, 173.374 349.185, 170.738 356.566 C 169.377 360.377, 169.069 363.663, 169.386 371 C 169.611 376.225, 170.144 381.625, 170.571 383 C 171.794 386.940, 168.884 384.041, 165.646 378.092 C 159.204 366.255, 156.743 345.341, 160.457 334 C 161.447 330.975, 164.009 325.847, 166.150 322.604 C 168.291 319.362, 169.837 316.503, 169.585 316.252 C 168.237 314.903, 158.465 321.526, 151.250 328.679 C 146.713 333.177, 143 336.561, 143 336.198 C 143 335.836, 144.621 332.914, 146.601 329.705 C 148.582 326.495, 149.989 323.655, 149.727 323.394 C 149.465 323.132, 147.877 324.074, 146.197 325.488 C 143.344 327.889, 132.988 346.922, 132.996 349.750 C 132.998 350.438, 132.522 351, 131.939 351 C 129.616 351, 133.560 333.132, 138.086 323.150 C 139.698 319.594, 140.791 316.458, 140.515 316.182 C 138.765 314.432, 130.384 328.273, 127.909 337 C 127.207 339.475, 126.371 345.775, 126.052 351 L 125.472 360.500 123.624 353 C 120.890 341.901, 120.480 329.414, 122.417 316.238 C 125.418 295.824, 129.246 286.656, 143.392 266 L 151.952 253.500 145.498 252.835 C 137.432 252.003, 133.265 250.647, 128.912 247.435 C 123.719 243.603, 121.011 238.416, 121.005 232.285 C 121.001 227.889, 121.481 226.522, 124.060 223.584 C 128.858 218.120, 136.356 215.719, 149 215.600 L 159.500 215.500 159.810 219.250 L 160.121 223 153.376 223 C 140.964 223, 134.047 228.856, 135.312 238.292 C 136.014 243.525, 139.505 246.990, 144.787 247.698 C 150.304 248.438, 153.312 247.543, 157.417 243.939 C 161.567 240.295, 163.164 235.738, 165.979 219.500 C 168.214 206.611, 169.213 202.662, 171.753 196.669 C 173.176 193.312, 173.693 192.914, 175.938 193.451 C 180.637 194.573, 181.216 194.510, 182.354 192.753 C 183.206 191.438, 183.179 190.516, 182.243 189.017 C 180.620 186.419, 180.668 185, 182.378 185 C 183.136 185, 184.448 183.988, 185.294 182.750 L 186.833 180.500 189.739 183.919 C 192.976 187.726, 194.520 187.462, 195.515 182.931 C 196.650 177.763, 199.771 179.406, 204.125 187.462 C 207.688 194.055, 207.938 194.293, 208.829 191.951 C 209.427 190.377, 209.383 186.109, 208.706 180.217 C 207.872 172.946, 207.915 170.693, 208.906 169.728 C 209.911 168.751, 210.892 169.316, 213.716 172.500 C 218.589 177.996, 228.695 190.640, 229.907 192.760 C 230.765 194.258, 232.614 192.797, 243.216 182.250 C 249.988 175.512, 256.024 170, 256.629 170 C 257.233 170, 262.782 175.400, 268.959 182 C 275.136 188.600, 280.583 194, 281.064 194 C 281.545 194, 284.149 190.738, 286.850 186.750 C 293.065 177.575, 299.743 170, 301.616 170 C 304.033 170, 304.241 172.485, 302.616 181.943 C 300.356 195.103, 301.682 197.475, 306.329 188.581 C 307.885 185.604, 310.005 182.400, 311.042 181.462 C 313.245 179.468, 315.993 180.162, 316.015 182.719 C 316.024 183.698, 316.454 185.170, 316.972 185.988 C 317.755 187.227, 318.469 186.937, 321.231 184.261 L 324.549 181.045 327.453 184.122 C 329.952 186.770, 330.186 187.472, 329.131 189.162 C 328.457 190.242, 328.197 192.044, 328.553 193.167 C 329.211 195.241, 330.210 195.273, 336.691 193.423 C 338.672 192.857, 339.078 193.452, 340.946 199.649 C 342.082 203.417, 344.326 213.138, 345.932 221.252 C 350.131 242.462, 354.033 248.402, 363.746 248.368 C 369.943 248.347, 374.313 245.967, 376.458 241.447 C 378.520 237.103, 377.926 232.447, 374.806 228.480 C 371.613 224.421, 366.843 222.838, 358.631 223.110 C 351.663 223.342, 351.493 223.289, 351.196 220.799 C 350.604 215.849, 353.262 214.692, 363.946 215.251 C 379.986 216.090, 389.886 221.547, 391.561 230.472 C 393.754 242.163, 383.369 251.763, 367.423 252.787 C 363.340 253.049, 360 253.629, 360 254.077 C 360 254.525, 363.632 260.428, 368.071 267.196 C 381.379 287.482, 385.588 298.007, 387.990 317 C 389.361 327.839, 389.203 337.199, 387.470 347.885 C 385.336 361.041, 384.068 362.544, 384.030 351.960 C 383.995 341.882, 382.091 333.827, 377.876 325.918 C 374.838 320.220, 370.491 315.176, 369.484 316.183 C 369.195 316.471, 370.532 320.036, 372.453 324.104 C 376.636 332.960, 379.235 342.629, 378.810 347.758 C 378.503 351.458, 378.468 351.419, 375.667 344.263 C 372.427 335.987, 367.009 327.355, 363.359 324.652 C 359.340 321.675, 359.531 323.419, 363.934 329.903 C 370.312 339.295, 369.978 340.198, 363.057 332.272 C 359.585 328.296, 355.340 323.973, 353.623 322.666 C 349.775 319.737, 341.969 315.698, 341.351 316.316 C 341.101 316.566, 342.725 319.602, 344.961 323.061 C 350.195 331.159, 352.002 337.421, 351.993 347.432 C 351.982 360.310, 346.188 380.109, 341.226 384.227 C 339.997 385.247, 339.914 384.436, 340.632 378.457 C 342.135 365.942, 340.476 352.300, 337.325 351.268 C 336.471 350.988, 336.164 353.838, 336.205 361.692 C 336.269 374.243, 334.409 381.027, 327.795 392.351 C 324.020 398.814, 317.140 407.473, 316.381 406.715 C 316.195 406.529, 317.598 402.416, 319.498 397.576 C 322.316 390.397, 325.428 379.304, 328.426 365.750 C 328.686 364.573, 328.205 364, 326.956 364 C 325.763 364, 322.530 367.491, 317.925 373.750 C 310.463 383.893, 290.853 404.058, 290.240 402.219 C 290.046 401.639, 291.215 398.536, 292.836 395.324 C 296.517 388.033, 301.332 372.793, 300.730 370.338 C 300.381 368.915, 299.993 369.252, 299.013 371.833 C 293.792 385.574, 285.446 398.821, 270.556 417 C 260.630 429.119, 258.893 432.182, 263.250 429.883 C 266.834 427.992, 294.180 408.018, 297.664 404.746 C 302.874 399.853, 303.361 401.211, 302.746 418.938 C 302.163 435.739, 301.436 438.727, 296.094 446.287 C 292.616 451.210, 291.440 456.396, 292.919 460.286 C 294.434 464.272, 296.516 464.606, 300.571 461.513 C 306.978 456.627, 309.711 456.487, 318.372 460.600 C 327.535 464.951, 330.923 464.738, 336.010 459.490 C 337.870 457.570, 339.990 456, 340.721 456 C 341.452 456, 345.229 457.601, 349.115 459.558 C 353.284 461.657, 357.270 462.989, 358.840 462.808 C 361.182 462.537, 361.536 462.007, 361.802 458.369 C 361.968 456.097, 361.226 450.697, 360.153 446.369 C 359.080 442.041, 357.915 436.830, 357.563 434.789 C 356.801 430.365, 358.260 414.266, 360.988 397 C 362.075 390.125, 363.106 382.925, 363.281 381 C 363.590 377.590, 363.693 377.701, 367.287 385.280 C 369.317 389.559, 371.256 394.172, 371.597 395.530 C 371.938 396.889, 372.556 398, 372.972 398 C 374.064 398, 381.993 389.293, 385.949 383.750 C 388.947 379.550, 392 377.551, 392 379.789 C 392 382.373, 382.229 416.052, 378.474 426.411 C 371.792 444.842, 372.493 447.745, 380.727 435.750 C 393.260 417.493, 403.609 397.242, 408.952 380.519 C 414.626 362.758, 416.154 353.279, 416.856 331.500 L 417.500 311.500 419.724 319.500 C 422.756 330.407, 424.864 344.871, 425.771 361 L 426.530 374.500 428.888 366 C 435.541 342.017, 437.913 319.793, 436.059 298.809 C 434.682 283.228, 431.870 267.859, 428.371 256.780 C 421.494 235.012, 432.382 254.409, 440.542 278.464 C 442.994 285.692, 445 292.594, 445 293.803 C 445 295.011, 445.450 296, 446 296 C 448.324 296, 446.529 268.871, 442.935 249.666 C 438.156 224.133, 425.538 195.709, 411.219 178.225 C 409.293 175.873, 408.039 173.628, 408.432 173.235 C 408.824 172.842, 413.238 173.979, 418.240 175.760 C 423.242 177.541, 427.597 178.729, 427.917 178.400 C 428.593 177.704, 422.885 172.535, 415 166.701 C 411.975 164.463, 405.900 159.287, 401.500 155.198 C 379.963 135.187, 361.317 126.464, 332 122.684 C 329.834 122.405, 330.169 122.060, 334.500 120.109 C 344.680 115.523, 362.626 112, 375.807 112 C 382.614 112, 382.365 110.480, 374.945 106.739 C 358.937 98.668, 333.201 99.565, 310.750 108.976 C 305.788 111.056, 304 111.446, 304 110.448 C 304 107.907, 316.469 98.952, 327 93.931 C 348.467 83.694, 348.138 83.926, 345.763 80.706 C 344.580 79.101, 343.895 79.158, 335 81.592 C 322.952 84.888, 313.119 89.417, 303.335 96.174 C 295.423 101.639, 277.168 119.214, 274.220 124.205 C 272.446 127.209, 271 127.847, 271 125.628 C 271 121.808, 276.335 104.013, 279.375 97.696 C 287.277 81.274, 300.215 65.329, 314.425 54.500 C 320.677 49.735, 322.966 46.373, 321.535 44.057 C 320.435 42.276, 318.219 42.839, 309.813 47.033 C 292.908 55.469, 278.739 67.634, 269.246 81.864 L 265 88.228 265 84.726 C 265 78.365, 269.933 63.695, 276.515 50.482 C 280.082 43.323, 283 37.135, 283 36.732 C 283 36.330, 280.535 36, 277.523 36 C 272.943 36, 271.807 36.368, 270.585 38.250 C 268.038 42.172, 259.198 70.121, 257.380 80 L 255.631 89.500 254.365 80.807 C 252.842 70.350, 246.207 40.255, 244.877 37.770 C 244.168 36.446, 242.693 36, 239.024 36 C 236.326 36, 233.835 36.457, 233.490 37.017 M 163.682 138.977 C 155.253 140.511, 145.974 146.308, 148.271 148.605 C 148.657 148.990, 152.348 148.510, 156.473 147.539 C 162.536 146.111, 166.613 145.880, 177.737 146.335 C 185.307 146.644, 192.963 147.196, 194.750 147.562 C 197.537 148.132, 198 147.948, 198 146.268 C 198 141.695, 191.392 139.202, 177.500 138.533 C 172.550 138.295, 166.332 138.495, 163.682 138.977 M 324.231 139.049 C 315.679 140.575, 311.799 142.564, 312.178 145.229 C 312.412 146.873, 313.053 147.406, 314.500 147.158 C 315.600 146.970, 323.025 146.591, 331 146.316 C 345.004 145.834, 349.098 146.285, 360.750 149.594 C 364.091 150.543, 363.732 146.657, 360.250 144.180 C 353.901 139.663, 335.489 137.040, 324.231 139.049 M 140 162.276 C 127.970 166.392, 117.826 173.785, 108.983 184.880 C 103.058 192.314, 97.750 202.301, 98.192 205.185 C 98.435 206.772, 100.051 205.386, 105.856 198.613 C 119.072 183.194, 132.430 172.282, 147 165.002 C 152.663 162.173, 152.749 162.085, 150.971 160.961 C 148.831 159.608, 147.239 159.799, 140 162.276 M 360 161.930 C 360 162.442, 363.560 164.757, 367.911 167.075 C 381.938 174.549, 392.748 183.937, 407.358 201.333 C 410.030 204.514, 412.397 206.936, 412.619 206.715 C 413.535 205.798, 409.720 197.349, 405.590 191.146 C 396.923 178.132, 384.401 167.539, 372.358 163.033 C 366.706 160.918, 360 160.320, 360 161.930 M 149.780 174.973 C 142.819 176.231, 134.966 180.161, 130.029 184.858 C 127.632 187.138, 125.886 189.219, 126.150 189.483 C 126.413 189.746, 129.750 188.654, 133.564 187.055 C 146.641 181.575, 159.024 180.084, 170.337 182.628 C 172.881 183.200, 173.139 183.025, 172.837 180.934 C 172.120 175.971, 160.656 173.007, 149.780 174.973 M 346.500 174.930 C 340.796 176.310, 337.389 179.393, 338.887 181.817 C 339.405 182.655, 340.624 182.665, 343.544 181.855 C 351.227 179.724, 368.840 182.837, 379.347 188.182 C 384.500 190.804, 385.110 189.742, 380.932 185.426 C 373.146 177.387, 356.863 172.423, 346.500 174.930 M 113.341 206.393 C 104.170 209.802, 98.218 214.590, 92.256 223.356 C 89.365 227.606, 87 231.782, 87 232.635 C 87 233.563, 89.917 231.483, 94.250 227.467 C 101.944 220.336, 108.729 215.452, 118.500 210.013 C 125.972 205.854, 125.733 206.075, 123.971 204.961 C 121.844 203.615, 120.230 203.833, 113.341 206.393 M 385 205.299 C 385 206.014, 386.462 207.128, 388.250 207.777 C 394.239 209.948, 410.251 221.066, 416.751 227.565 C 420.290 231.104, 423.344 234, 423.537 234 C 423.731 234, 422.940 231.716, 421.780 228.925 C 417.614 218.899, 406.734 209.575, 394.909 205.895 C 387.767 203.672, 385 203.505, 385 205.299 M 182.836 220.077 C 177.986 221.956, 178.765 223.530, 184.375 223.186 C 187.732 222.980, 190.178 223.375, 191.466 224.330 C 193.377 225.748, 193.384 225.940, 191.716 231.232 C 188.304 242.055, 190.316 253.436, 196.619 258.970 C 199.477 261.480, 200.928 262, 205.075 262 C 210.260 262, 213.034 260.887, 223.245 254.711 C 226.404 252.800, 231.579 250.213, 234.745 248.962 C 237.910 247.712, 240.878 246.358, 241.340 245.954 C 241.802 245.551, 239.777 244.433, 236.840 243.471 C 228.710 240.808, 221.034 236.679, 213.058 230.678 C 200.376 221.138, 189.732 217.404, 182.836 220.077 M 315.287 220.866 C 310.313 222.585, 306.316 225.048, 294 233.982 C 290.975 236.176, 284.900 239.367, 280.500 241.073 C 276.100 242.779, 272.143 244.515, 271.708 244.930 C 270.640 245.947, 272.595 247.337, 278 249.405 C 280.475 250.352, 286.502 253.648, 291.394 256.730 C 298.566 261.249, 301.106 262.333, 304.516 262.333 C 314.145 262.333, 320.396 254.531, 320.462 242.431 C 320.495 236.299, 320.122 234.785, 317.662 231.067 C 316.101 228.707, 315.201 226.421, 315.662 225.986 C 317.592 224.166, 326.112 222.072, 329.131 222.676 C 333.611 223.572, 332.012 221.375, 327.214 220.043 C 322.321 218.684, 321.425 218.746, 315.287 220.866 M 145.382 228.909 C 138.031 233.391, 141.688 244.326, 149.933 242.515 C 156.192 241.140, 159.489 234.162, 155.984 229.707 C 153.432 226.463, 149.837 226.192, 145.382 228.909 M 358.073 230.635 C 356.933 232.084, 356 234.273, 356 235.500 C 356 239.105, 359.707 243, 363.138 243 C 367.351 243, 369.621 241.527, 370.853 237.993 C 372.773 232.485, 369.660 228, 363.918 228 C 361.033 228, 359.657 228.620, 358.073 230.635 M 205.200 234.200 C 201.806 237.594, 205.797 243.249, 210 241 C 212.218 239.813, 212.529 237.857, 210.965 234.934 C 209.798 232.754, 207.002 232.398, 205.200 234.200 M 305.200 234.200 C 302.285 237.115, 305.947 242.786, 309.928 241.523 C 313.770 240.303, 312.117 233, 308 233 C 307.120 233, 305.860 233.540, 305.200 234.200 M 107.874 240.250 C 99.244 251.935, 91.078 274.503, 89.511 291 C 88.656 299.997, 89.786 299.511, 92.999 289.500 C 96.359 279.026, 103.227 262.504, 109.010 250.979 C 112.644 243.738, 113.976 240.042, 113.556 238.368 C 112.709 234.993, 111.448 235.410, 107.874 240.250 M 398.202 238.603 C 397.562 239.748, 399.089 244.257, 403.535 254.353 C 406.962 262.134, 411.883 274.575, 414.470 282 C 421.058 300.901, 421.122 300.984, 420.565 290 C 419.798 274.865, 412.764 254.239, 404.053 241.577 C 400.660 236.646, 399.599 236.107, 398.202 238.603 M 240.321 257.804 C 233.394 260.266, 228.541 263.678, 225.234 268.415 C 222.921 271.726, 222.500 273.355, 222.500 278.988 C 222.500 284.582, 222.941 286.312, 225.259 289.814 C 235.192 304.824, 263.250 307.868, 280.743 295.833 C 294.954 286.055, 292.138 267.617, 275.161 259.280 C 270.067 256.779, 268.297 256.473, 257.500 256.232 C 247.892 256.018, 244.468 256.331, 240.321 257.804 M 153 281.537 C 148.681 282.878, 141 288.268, 141 289.958 C 141 290.405, 144.653 289.505, 149.117 287.959 C 153.582 286.414, 160.669 284.819, 164.867 284.417 L 172.500 283.685 168.500 281.868 C 163.769 279.721, 159.166 279.622, 153 281.537 M 342.500 281.887 L 338.500 283.722 345.500 284.401 C 351.620 284.994, 362.368 287.858, 368.500 290.529 C 370.416 291.364, 370.432 291.297, 368.893 288.950 C 368.009 287.603, 364.482 285.038, 361.055 283.250 C 353.840 279.486, 348.577 279.100, 342.500 281.887 M 157.750 288.203 C 155.688 288.750, 154 289.652, 154 290.206 C 154 290.761, 154.712 290.941, 155.582 290.607 C 156.452 290.273, 160.416 290, 164.391 290 C 169.197 290, 172.268 289.508, 173.559 288.532 C 175.323 287.197, 174.862 287.070, 168.500 287.135 C 164.650 287.175, 159.813 287.655, 157.750 288.203 M 337 287.933 C 337 289.224, 339.311 289.788, 347.898 290.594 C 352.844 291.058, 355.087 290.949, 354.665 290.267 C 353.192 287.884, 337 285.744, 337 287.933 M 217.635 305.508 C 213.405 309.738, 213.521 310.906, 218.662 315.849 C 231.075 327.782, 252.420 332.470, 270.957 327.335 C 281.861 324.315, 294.392 316.271, 295.582 311.529 C 296.226 308.963, 294.565 305, 292.847 305 C 292.251 305, 290.223 306.353, 288.339 308.007 C 284.105 311.725, 275.267 316.250, 268.068 318.388 C 259.861 320.824, 249.287 320.482, 240.376 317.490 C 231.622 314.551, 228.950 313.020, 223.391 307.753 C 219.575 304.138, 219.165 303.978, 217.635 305.508 M 225 371.557 C 225 373.858, 231.207 388.441, 237.865 401.783 C 243.199 412.471, 248.039 422.944, 252.524 433.500 C 253.622 436.085, 254.401 436.969, 254.727 436 C 256.527 430.633, 263.832 413.183, 269.797 400 C 282.430 372.080, 283.718 361.783, 271.858 383.524 C 262.059 401.488, 259.454 406.712, 256.922 413.479 C 255.786 416.515, 254.551 418.991, 254.178 418.979 C 253.805 418.968, 251.108 414.383, 248.185 408.790 C 242.403 397.730, 226.141 370, 225.436 370 C 225.196 370, 225 370.700, 225 371.557" stroke="none" fill="black" fill-rule="evenodd"/></svg>